<svg width="23" height="23" viewBox="0 0 23 23" fill="none" xmlns="http://www.w3.org/2000/svg">
<path d="M13.3421 9.65833C13.9779 10.2945 14.4499 11.0497 14.6043 11.6785C14.6848 12.0066 14.9785 12.2259 15.3017 12.2259C15.3584 12.2259 15.4161 12.2192 15.4736 12.2052C15.8591 12.1105 16.0947 11.7213 16.0002 11.336C15.7826 10.4496 15.1841 9.46778 14.3583 8.6421C13.5328 7.81641 12.5511 7.21812 11.6649 7.0002C11.2789 6.90546 10.8901 7.14092 10.7953 7.52656C10.7006 7.91221 10.9364 8.30136 11.3217 8.39611C11.9511 8.55086 12.7062 9.02248 13.3421 9.65833Z" fill="#220959"/>
<path d="M19.4399 3.5602C17.6869 1.80707 15.5345 0.550474 13.3788 0.0213081C12.9934 -0.0730876 12.6042 0.162373 12.5096 0.548019C12.4151 0.933317 12.6509 1.32247 13.0363 1.41722C14.9404 1.88463 16.8537 3.00647 18.4236 4.57643C19.9934 6.14639 21.1154 8.05989 21.5832 9.96426C21.6637 10.292 21.9574 10.5113 22.2806 10.5113C22.3373 10.5113 22.395 10.5047 22.4526 10.4906C22.8381 10.3959 23.0737 10.0067 22.9791 9.62107C22.4496 7.4658 21.1927 5.31298 19.4399 3.5602Z" fill="#220959"/>
<path d="M16.8991 6.1012C15.6036 4.80566 14.0489 3.88593 12.5217 3.51081C12.1349 3.41641 11.7469 3.65187 11.6524 4.03752C11.5578 4.42282 11.7936 4.81197 12.1789 4.90672C13.4548 5.22008 14.7703 6.00506 15.8827 7.11743C16.9951 8.23016 17.7803 9.54536 18.0936 10.8216C18.1741 11.1494 18.4679 11.3687 18.791 11.3687C18.8477 11.3687 18.9054 11.362 18.963 11.348C19.3485 11.2532 19.5841 10.8641 19.4895 10.4784C19.1144 8.95127 18.1945 7.39675 16.8991 6.1012Z" fill="#220959"/>
<path d="M8.09787 7.42469C8.67248 6.37758 8.48386 5.05606 7.63905 4.21143L5.6438 2.21618C5.13288 1.70525 4.45352 1.42383 3.73118 1.42383C3.00866 1.42383 2.3293 1.70525 1.81891 2.21583L1.44326 2.5913C1.22377 2.81096 1.05042 3.05309 0.927781 3.31171C-1.17924 7.75559 0.390365 13.9007 4.74495 18.2554C7.80503 21.3157 11.7489 23.0004 15.366 23C16.8958 23 18.3677 22.6986 19.6888 22.0722C19.9478 21.9494 20.1905 21.7757 20.4093 21.5564L20.7844 21.1816C21.8387 20.1268 21.8385 18.4109 20.7842 17.3568L18.7888 15.3611C17.9445 14.5165 16.6228 14.3281 15.5755 14.9022L12.5765 16.5476C12.1966 16.756 11.7331 16.7592 11.3669 16.5539C10.3546 15.9886 9.41342 15.2741 8.56984 14.4305C7.72661 13.5873 7.01216 12.6462 6.44632 11.6331C6.24174 11.2671 6.2442 10.8039 6.45264 10.4235L8.09787 7.42469ZM5.19148 12.3342C5.82188 13.4627 6.61669 14.5102 7.55361 15.4468C8.49088 16.384 9.53799 17.1788 10.6658 17.8087C11.472 18.2593 12.4446 18.2589 13.2676 17.808L16.2668 16.1626C16.7575 15.8935 17.3769 15.9819 17.7725 16.3774L19.768 18.373C20.2619 18.8671 20.2619 19.671 19.768 20.1654L19.3927 20.5405C19.29 20.643 19.1823 20.7216 19.0727 20.7735C15.1679 22.6249 9.69362 21.1718 5.76118 17.2392C1.82856 13.3062 0.375105 7.83244 2.22632 3.92755C2.27843 3.81806 2.35703 3.71034 2.45967 3.60752L2.83514 3.2324C3.07446 2.99308 3.39273 2.86114 3.73118 2.86114C4.06963 2.86114 4.3879 2.99309 4.62739 3.2324L6.62283 5.22766C7.01865 5.62348 7.10708 6.24283 6.83775 6.7334L5.19235 9.7326C5.19235 9.7326 5.19235 9.7326 5.19218 9.73295C4.74126 10.5555 4.74092 11.5278 5.19148 12.3342Z" fill="#220959"/>
</svg>
