<svg width="33" height="31" viewBox="0 0 33 31" fill="none" xmlns="http://www.w3.org/2000/svg">
<path d="M31.3349 15.7323C31.3349 23.556 24.5992 29.9952 16.1674 29.9952C7.73567 29.9952 1 23.556 1 15.7323C1 7.90855 7.73567 1.46936 16.1674 1.46936C24.5992 1.46936 31.3349 7.90855 31.3349 15.7323Z" stroke="#220959" stroke-width="2"/>
<path d="M19.0159 22.385H13.3188C12.2056 22.3838 11.1383 21.9658 10.3512 21.2226C9.56403 20.4795 9.12129 19.4719 9.12012 18.4209V13.0426C9.12137 11.9917 9.56414 10.9842 10.3513 10.2411C11.1384 9.49804 12.2056 9.08004 13.3188 9.07886H19.0159C20.1291 9.07997 21.1964 9.49793 21.9836 10.241C22.7708 10.9841 23.2136 11.9917 23.2149 13.0426V18.4209C23.2137 19.4719 22.771 20.4796 21.9837 21.2227C21.1965 21.9659 20.1292 22.3839 19.0159 22.385ZM13.3188 10.4172C12.5815 10.418 11.8746 10.6949 11.3533 11.1871C10.8319 11.6793 10.5386 12.3466 10.5378 13.0426V18.4209C10.5386 19.117 10.8319 19.7843 11.3533 20.2764C11.8747 20.7686 12.5815 21.0454 13.3188 21.0461H19.0159C19.7532 21.0454 20.46 20.7685 20.9813 20.2764C21.5026 19.7842 21.7959 19.117 21.7966 18.4209V13.0426C21.7959 12.3466 21.5026 11.6793 20.9813 11.1871C20.46 10.6949 19.7532 10.418 19.0159 10.4172H13.3188ZM16.1666 19.1729C15.4457 19.1726 14.7411 18.9706 14.1418 18.5924C13.5425 18.2141 13.0754 17.6765 12.7997 17.0477C12.524 16.4189 12.452 15.727 12.5928 15.0595C12.7336 14.3921 13.0809 13.779 13.5908 13.2979C14.1007 12.8167 14.7502 12.4891 15.4573 12.3564C16.1644 12.2238 16.8972 12.292 17.5632 12.5526C18.2292 12.8131 18.7984 13.2542 19.1989 13.8201C19.5993 14.3861 19.813 15.0514 19.813 15.7319C19.812 16.6444 19.4277 17.5192 18.7442 18.1644C18.0607 18.8095 17.134 19.1723 16.1675 19.1732L16.1666 19.1729ZM16.1666 13.6279C15.7261 13.6279 15.2954 13.7513 14.9291 13.9823C14.5628 14.2134 14.2773 14.5418 14.1087 14.9261C13.9401 15.3103 13.896 15.7331 13.9819 16.1411C14.0679 16.549 14.28 16.9237 14.5915 17.2178C14.9031 17.5119 15.3 17.7121 15.7321 17.7933C16.1641 17.8744 16.612 17.8328 17.0191 17.6736C17.4261 17.5145 17.774 17.2449 18.0187 16.8991C18.2635 16.5533 18.3941 16.1467 18.3941 15.7308C18.3932 15.1736 18.1583 14.6395 17.7409 14.2455C17.3235 13.8516 16.7577 13.6299 16.1675 13.6291L16.1666 13.6279ZM19.8189 13.1398C19.6461 13.1398 19.4772 13.0913 19.3336 13.0007C19.19 12.91 19.078 12.7812 19.012 12.6304C18.9459 12.4797 18.9287 12.3139 18.9624 12.1539C18.9962 11.9939 19.0795 11.847 19.2017 11.7317C19.3239 11.6164 19.4796 11.5379 19.6491 11.5061C19.8185 11.4744 19.9942 11.4908 20.1538 11.5532C20.3134 11.6157 20.4498 11.7215 20.5458 11.8571C20.6417 11.9928 20.6929 12.1522 20.6928 12.3154C20.6928 12.5341 20.6009 12.7439 20.4372 12.8986C20.2735 13.0534 20.0515 13.1406 19.8198 13.1409L19.8189 13.1398Z" fill="#220959"/>
</svg>
