<?xml version="1.0" standalone="no"?>
<!DOCTYPE svg PUBLIC "-//W3C//DTD SVG 20010904//EN"
 "http://www.w3.org/TR/2001/REC-SVG-20010904/DTD/svg10.dtd">
<svg version="1.0" xmlns="http://www.w3.org/2000/svg"
 width="666.000000pt" height="374.000000pt" viewBox="0 0 666.000000 374.000000"
 preserveAspectRatio="xMidYMid meet">

<g transform="translate(0.000000,374.000000) scale(0.100000,-0.100000)"
fill="#000000" stroke="none">
<path d="M1110 2191 l0 -71 223 0 c210 -1 223 -2 247 -21 21 -18 25 -30 25
-76 0 -48 -4 -58 -28 -79 -28 -24 -30 -24 -248 -24 l-219 0 0 -240 0 -240 70
0 70 0 0 175 0 175 165 0 c135 0 171 3 202 18 85 39 123 106 123 217 0 63 -5
84 -27 125 -15 28 -32 50 -39 50 -7 0 -14 3 -16 8 -1 4 -21 16 -43 26 -35 17
-68 20 -272 24 l-233 4 0 -71z"/>
<path d="M1955 2249 c-3 -8 -4 -192 -3 -409 l3 -395 63 -3 62 -3 0 171 0 170
88 0 87 -1 16 -32 c33 -68 104 -202 110 -207 3 -3 16 -26 29 -52 l24 -48 73 0
c40 0 73 1 73 3 0 3 -48 97 -82 159 -13 23 -29 48 -35 56 -7 7 -13 18 -13 23
0 5 -12 28 -26 51 -21 32 -23 42 -12 49 7 5 17 9 21 9 21 0 72 47 98 88 26 42
29 54 29 133 0 98 -10 130 -55 174 -68 67 -78 69 -322 73 -182 4 -224 2 -228
-9z m452 -156 c31 -35 32 -117 2 -153 -21 -24 -25 -25 -175 -28 l-154 -3 0
105 0 106 152 0 152 0 23 -27z"/>
<path d="M2770 1850 l0 -410 270 0 270 0 0 70 0 70 -205 0 -205 0 0 105 0 105
175 0 175 0 0 65 0 65 -175 0 -175 0 0 100 0 100 205 0 205 0 0 70 0 70 -270
0 -270 0 0 -410z"/>
<path d="M3520 1850 l0 -410 270 0 270 0 0 70 0 70 -205 0 -205 0 0 105 0 105
175 0 175 0 0 65 0 65 -175 0 -175 0 0 100 0 100 205 0 205 0 0 70 0 70 -270
0 -270 0 0 -410z"/>
<path d="M4460 2250 c-97 -10 -166 -53 -205 -131 -44 -86 -28 -175 45 -246 30
-30 48 -37 165 -69 89 -24 122 -43 140 -80 14 -30 14 -37 1 -68 -31 -75 -126
-97 -217 -52 -39 20 -51 22 -61 13 -7 -7 -30 -26 -51 -41 l-37 -29 22 -19 c74
-65 158 -89 262 -76 108 14 186 72 219 164 33 93 13 173 -59 239 -42 39 -84
57 -169 70 -78 12 -112 27 -129 55 -24 42 -20 74 15 109 28 29 35 31 102 31
61 0 78 -4 110 -25 20 -14 37 -22 37 -18 0 4 23 23 50 42 46 31 49 36 35 51
-29 32 -120 74 -170 80 -27 3 -75 3 -105 0z"/>
<path d="M5140 2249 c-144 -15 -220 -93 -220 -226 0 -58 4 -75 27 -108 44 -66
59 -74 193 -109 47 -13 98 -31 112 -40 63 -41 57 -126 -13 -165 -47 -27 -108
-27 -161 -1 -44 21 -74 26 -80 12 -1 -4 -20 -20 -40 -36 l-37 -28 32 -27 c73
-63 147 -83 256 -68 108 14 177 67 214 165 22 54 21 95 0 156 -28 77 -123 146
-201 146 -38 0 -136 31 -148 48 -7 9 -14 36 -14 60 0 34 6 48 26 67 23 22 36
25 98 25 60 0 77 -4 109 -25 20 -14 37 -21 37 -15 0 5 7 10 15 10 8 0 15 3 15
8 0 4 16 18 35 31 l36 24 -22 23 c-52 55 -160 85 -269 73z"/>
</g>
</svg>
