<svg width="33" height="31" viewBox="0 0 33 31" fill="none" xmlns="http://www.w3.org/2000/svg">
<path d="M31.3349 15.7322C31.3349 23.5559 24.5992 29.9951 16.1674 29.9951C7.73566 29.9951 1 23.5559 1 15.7322C1 7.90853 7.73566 1.46936 16.1674 1.46936C24.5992 1.46936 31.3349 7.90853 31.3349 15.7322Z" stroke="#220959" stroke-width="2"/>
<g clip-path="url(#clip0_1_936)">
<path d="M13.493 20.8557L13.2614 24.113C13.5927 24.113 13.7362 23.9707 13.9083 23.7997L15.4617 22.3152L18.6806 24.6724C19.2709 25.0014 19.6868 24.8282 19.8461 24.1293L21.9589 14.229L21.9595 14.2284C22.1467 13.3557 21.6439 13.0145 21.0687 13.2286L8.64957 17.9833C7.80199 18.3123 7.81482 18.7848 8.50549 18.9989L11.6806 19.9865L19.0557 15.3717C19.4027 15.1419 19.7183 15.2691 19.4587 15.4989L13.493 20.8557Z" fill="#220959"/>
</g>
<defs>
<clipPath id="clip0_1_936">
<rect width="14" height="14" fill="white" transform="translate(8 12)"/>
</clipPath>
</defs>
</svg>
